<?xml version="1.0" encoding="UTF-8" standalone="no"?>
<!-- Created with Inkscape (http://www.inkscape.org/) -->

<svg
   width="65.99221mm"
   height="111.40044mm"
   viewBox="0 0 65.992211 111.40045"
   version="1.1"
   id="svg1"
   xml:space="preserve"
   inkscape:version="1.4.4 (dcaf3e7, 2026-05-05)"
   sodipodi:docname="ParanoidSmiley.svg"
   inkscape:export-filename="happyboydigital_about.png"
   inkscape:export-xdpi="96"
   inkscape:export-ydpi="96"
   xmlns:inkscape="http://www.inkscape.org/namespaces/inkscape"
   xmlns:sodipodi="http://sodipodi.sourceforge.net/DTD/sodipodi-0.dtd"
   xmlns="http://www.w3.org/2000/svg"
   xmlns:svg="http://www.w3.org/2000/svg"><sodipodi:namedview
     id="namedview1"
     pagecolor="#505050"
     bordercolor="#eeeeee"
     borderopacity="1"
     inkscape:showpageshadow="0"
     inkscape:pageopacity="0"
     inkscape:pagecheckerboard="0"
     inkscape:deskcolor="#505050"
     inkscape:document-units="mm"
     inkscape:zoom="2"
     inkscape:cx="522.25"
     inkscape:cy="305.25"
     inkscape:window-width="3200"
     inkscape:window-height="1771"
     inkscape:window-x="2391"
     inkscape:window-y="-9"
     inkscape:window-maximized="1"
     inkscape:current-layer="layer15" /><defs
     id="defs1"><inkscape:path-effect
       effect="spiro"
       id="path-effect2362"
       is_visible="true"
       lpeversion="1" /><linearGradient
       id="swatch2349"
       inkscape:swatch="solid"><stop
         style="stop-color:#cac6b7;stop-opacity:1;"
         offset="0"
         id="stop2349" /></linearGradient><rect
       x="-109.5"
       y="868"
       width="629.5"
       height="120"
       id="rect2335" /><rect
       x="-32.5"
       y="710.5"
       width="912.5"
       height="178"
       id="rect2334" /><rect
       x="9.5"
       y="549.5"
       width="493.5"
       height="206.5"
       id="rect2333" /><rect
       x="21"
       y="420"
       width="654"
       height="146"
       id="rect2332" /><inkscape:path-effect
       effect="spiro"
       id="path-effect2319"
       is_visible="true"
       lpeversion="1" /><inkscape:path-effect
       effect="spiro"
       id="path-effect2317"
       is_visible="true"
       lpeversion="1" /><inkscape:path-effect
       effect="spiro"
       id="path-effect2315"
       is_visible="true"
       lpeversion="1" /><rect
       x="-75.5"
       y="-289"
       width="256.5"
       height="147"
       id="rect2315" /><rect
       x="252.5"
       y="-310"
       width="146"
       height="98"
       id="rect2314" /><rect
       x="325.5"
       y="-165.5"
       width="103"
       height="104"
       id="rect2313" /><inkscape:path-effect
       effect="spiro"
       id="path-effect2313"
       is_visible="true"
       lpeversion="1" /><rect
       x="10.780501"
       y="525.54944"
       width="913.64746"
       height="195.39658"
       id="rect1" /><rect
       x="10.780501"
       y="525.54944"
       width="913.64746"
       height="195.39658"
       id="rect2" /><rect
       x="10.780501"
       y="525.54944"
       width="913.64746"
       height="195.39658"
       id="rect3" /><rect
       x="10.780501"
       y="525.54944"
       width="913.64746"
       height="195.39658"
       id="rect4" /><rect
       x="325.5"
       y="-165.5"
       width="103"
       height="104"
       id="rect2321" /><rect
       x="252.5"
       y="-310"
       width="146"
       height="98"
       id="rect2322" /><rect
       x="-75.5"
       y="-289"
       width="256.5"
       height="147"
       id="rect2323" /><rect
       x="325.5"
       y="-165.5"
       width="103"
       height="104"
       id="rect2325" /><rect
       x="252.5"
       y="-310"
       width="146"
       height="98"
       id="rect2326" /><rect
       x="-75.5"
       y="-289"
       width="256.5"
       height="147"
       id="rect2327" /><rect
       x="325.5"
       y="-165.5"
       width="103"
       height="104"
       id="rect2329" /><rect
       x="252.5"
       y="-310"
       width="146"
       height="98"
       id="rect2330" /><rect
       x="-75.5"
       y="-289"
       width="256.5"
       height="147"
       id="rect2331" /><rect
       x="-109.5"
       y="868"
       width="629.5"
       height="120"
       id="rect2336" /><rect
       x="-109.5"
       y="868"
       width="629.5"
       height="120"
       id="rect2337" /><rect
       x="-109.5"
       y="868"
       width="629.5"
       height="120"
       id="rect2338" /><rect
       x="-32.5"
       y="710.5"
       width="912.5"
       height="178"
       id="rect2339" /><rect
       x="-32.5"
       y="710.5"
       width="912.5"
       height="178"
       id="rect2340" /><rect
       x="-32.5"
       y="710.5"
       width="912.5"
       height="178"
       id="rect2341" /><rect
       x="9.5"
       y="549.5"
       width="493.5"
       height="206.5"
       id="rect2342" /><rect
       x="9.5"
       y="549.5"
       width="493.5"
       height="206.5"
       id="rect2343" /><rect
       x="9.5"
       y="549.5"
       width="493.5"
       height="206.5"
       id="rect2344" /><rect
       x="21"
       y="420"
       width="654"
       height="146"
       id="rect2345" /><rect
       x="21"
       y="420"
       width="654"
       height="146"
       id="rect2346" /><rect
       x="21"
       y="420"
       width="654"
       height="146"
       id="rect2347" /></defs><g
     inkscape:groupmode="layer"
     id="layer15"
     inkscape:label="SKUERILLA"
     style="display:inline"
     transform="translate(37.497787,65.837725)"><g
       id="g2315"
       transform="matrix(1.0004805,0,0,0.95539665,12.787704,72.233876)"
       style="display:inline;stroke:#000000;stroke-opacity:0.497573"><path
         style="fill:#00e7ff;fill-opacity:1;stroke:#000000;stroke-width:1.037;stroke-linecap:round;stroke-opacity:0.497573;paint-order:markers fill stroke"
         d="m 75.406249,-25.796875 c -3.316904,-5.69101 -4.3187,-12.493834 -3.990056,-19.072698 0.328644,-6.578863 1.909655,-13.02237 3.460889,-19.424176 0.777343,-3.208028 1.553795,-6.432418 2.811309,-9.484363 1.257514,-3.051944 3.027424,-5.949994 5.523066,-8.110429 2.169005,-1.877671 4.855853,-3.151581 7.682931,-3.63929 2.827078,-0.487709 5.786323,-0.187442 8.456652,0.861165 4.36277,1.71321 7.79452,5.348489 9.92188,9.525 2.42139,4.753763 3.27201,10.157289 3.53905,15.485521 0.26704,5.328233 -0.0156,10.674166 0.2974,15.999896 0.17082,2.906381 0.51886,5.802916 0.58308,8.713604 0.0642,2.910688 -0.16392,5.863982 -1.11224,8.616604 -1.26726,3.678408 -3.8224,6.881772 -7.07075,9.023009 -3.24834,2.141238 -7.16497,3.223943 -11.055037,3.160564 -3.890067,-0.06338 -7.741256,-1.258713 -11.04117,-3.319587 -3.299915,-2.060874 -6.047909,-4.973483 -8.007004,-8.33482 z"
         id="path2316"
         inkscape:path-effect="#path-effect2317"
         inkscape:original-d="m 75.406249,-25.796875 c -12.391318,0.176389 -0.264583,-25.576389 -0.529167,-38.496874 -0.264583,-12.920485 5.600348,-11.72986 8.334375,-17.594792 2.734027,-5.864931 10.715625,-1.852083 16.139583,-2.778125 5.42396,-0.926041 6.61458,6.305902 9.92188,9.525 3.30729,3.219098 2.60173,21.034375 3.83645,31.485417 1.23473,10.451041 -0.39687,11.509374 -0.52916,17.330208 -0.13229,5.820833 -24.782643,0.352777 -37.173961,0.529166 z"
         transform="matrix(1,0,0,0.89470693,-1.3229167,-5.9867438)" /><path
         style="fill:#ff00c8;fill-opacity:1;stroke:#000000;stroke-width:1.037;stroke-linecap:round;stroke-opacity:0.497573;paint-order:markers fill stroke"
         d="m 75.406249,-25.796875 c -3.316904,-5.69101 -4.3187,-12.493834 -3.990056,-19.072698 0.328644,-6.578863 1.909655,-13.02237 3.460889,-19.424176 0.777343,-3.208028 1.553795,-6.432418 2.811309,-9.484363 1.257514,-3.051944 3.027424,-5.949994 5.523066,-8.110429 2.169005,-1.877671 4.855853,-3.151581 7.682931,-3.63929 2.827078,-0.487709 5.786323,-0.187442 8.456652,0.861165 4.36277,1.71321 7.79452,5.348489 9.92188,9.525 2.42139,4.753763 3.27201,10.157289 3.53905,15.485521 0.26704,5.328233 -0.0156,10.674166 0.2974,15.999896 0.17082,2.906381 0.51886,5.802916 0.58308,8.713604 0.0642,2.910688 -0.16392,5.863982 -1.11224,8.616604 -1.26726,3.678408 -3.8224,6.881772 -7.07075,9.023009 -3.24834,2.141238 -7.16497,3.223943 -11.055037,3.160564 -3.890067,-0.06338 -7.741256,-1.258713 -11.04117,-3.319587 -3.299915,-2.060874 -6.047909,-4.973483 -8.007004,-8.33482 z"
         id="path2315"
         inkscape:path-effect="#path-effect2315"
         inkscape:original-d="m 75.406249,-25.796875 c -12.391318,0.176389 -0.264583,-25.576389 -0.529167,-38.496874 -0.264583,-12.920485 5.600348,-11.72986 8.334375,-17.594792 2.734027,-5.864931 10.715625,-1.852083 16.139583,-2.778125 5.42396,-0.926041 6.61458,6.305902 9.92188,9.525 3.30729,3.219098 2.60173,21.034375 3.83645,31.485417 1.23473,10.451041 -0.39687,11.509374 -0.52916,17.330208 -0.13229,5.820833 -24.782643,0.352777 -37.173961,0.529166 z"
         transform="matrix(1,0,0,0.89470692,1.8520833,-9.69091)" /><path
         style="fill:#6b4226;fill-opacity:1;stroke:#000000;stroke-width:1.037;stroke-linecap:round;stroke-opacity:0.497573;paint-order:markers fill stroke"
         d="m 75.406249,-25.796875 c -3.316904,-5.69101 -4.3187,-12.493834 -3.990056,-19.072698 0.328644,-6.578863 1.909655,-13.02237 3.460889,-19.424176 0.777343,-3.208028 1.553795,-6.432418 2.811309,-9.484363 1.257514,-3.051944 3.027424,-5.949994 5.523066,-8.110429 2.169005,-1.877671 4.855853,-3.151581 7.682931,-3.63929 2.827078,-0.487709 5.786323,-0.187442 8.456652,0.861165 4.36277,1.71321 7.79452,5.348489 9.92188,9.525 2.42139,4.753763 3.27201,10.157289 3.53905,15.485521 0.26704,5.328233 -0.0156,10.674166 0.2974,15.999896 0.17082,2.906381 0.51886,5.802916 0.58308,8.713604 0.0642,2.910688 -0.16392,5.863982 -1.11224,8.616604 -1.26726,3.678408 -3.8224,6.881772 -7.07075,9.023009 -3.24834,2.141238 -7.16497,3.223943 -11.055037,3.160564 -3.890067,-0.06338 -7.741256,-1.258713 -11.04117,-3.319587 -3.299915,-2.060874 -6.047909,-4.973483 -8.007004,-8.33482 z"
         id="path2317"
         inkscape:path-effect="#path-effect2319"
         inkscape:original-d="m 75.406249,-25.796875 c -12.391318,0.176389 -0.264583,-25.576389 -0.529167,-38.496874 -0.264583,-12.920485 5.600348,-11.72986 8.334375,-17.594792 2.734027,-5.864931 10.715625,-1.852083 16.139583,-2.778125 5.42396,-0.926041 6.61458,6.305902 9.92188,9.525 3.30729,3.219098 2.60173,21.034375 3.83645,31.485417 1.23473,10.451041 -0.39687,11.509374 -0.52916,17.330208 -0.13229,5.820833 -24.782643,0.352777 -37.173961,0.529166 z"
         transform="matrix(1,0,0,0.89470693,0,-9.0294521)" /><g
         id="g2319"
         style="fill:#ff00c8;fill-opacity:1;stroke:#000000;stroke-opacity:0.497573"
         transform="translate(1.984375,-1.0583333)"><text
           xml:space="preserve"
           transform="scale(0.26458333)"
           id="text2313"
           style="font-style:normal;font-variant:normal;font-weight:normal;font-stretch:normal;font-size:85.3333px;line-height:0;font-family:'Showcard Gothic';-inkscape-font-specification:'Showcard Gothic';writing-mode:lr-tb;direction:ltr;white-space:pre;shape-inside:url(#rect2313);display:inline;fill:#ff00c8;fill-opacity:1;stroke:#000000;stroke-width:3.91937;stroke-linecap:round;stroke-opacity:0.497573;paint-order:markers fill stroke"><tspan
             x="325.5"
             y="-140.12501"
             id="tspan1">A</tspan></text><text
           xml:space="preserve"
           transform="matrix(0.26458333,0,0,0.26458333,10.451041,30.559375)"
           id="text2314"
           style="font-style:normal;font-variant:normal;font-weight:normal;font-stretch:normal;font-size:85.3333px;line-height:0;font-family:'Showcard Gothic';-inkscape-font-specification:'Showcard Gothic';writing-mode:lr-tb;direction:ltr;white-space:pre;shape-inside:url(#rect2314);display:inline;fill:#ff00c8;fill-opacity:1;stroke:#000000;stroke-width:3.91937;stroke-linecap:round;stroke-opacity:0.497573;paint-order:markers fill stroke"><tspan
             x="252.5"
             y="-284.62501"
             id="tspan2">OO</tspan></text><text
           xml:space="preserve"
           transform="matrix(0.19797491,0,0,0.19797491,99.955152,27.389918)"
           id="text2315"
           style="font-style:normal;font-variant:normal;font-weight:normal;font-stretch:normal;font-size:85.3333px;line-height:0;font-family:'Showcard Gothic';-inkscape-font-specification:'Showcard Gothic';writing-mode:lr-tb;direction:ltr;white-space:pre;shape-inside:url(#rect2315);display:inline;fill:#ff00c8;fill-opacity:1;stroke:#000000;stroke-width:3.91937;stroke-linecap:round;stroke-opacity:0.497573;paint-order:markers fill stroke"><tspan
             x="-75.5"
             y="-263.62501"
             id="tspan3">''''</tspan></text></g><g
         id="g2321"
         style="display:inline;fill:#00e7ff;fill-opacity:1;stroke:#000000;stroke-opacity:0.497573"
         transform="translate(-0.66145833,1.190625)"><text
           xml:space="preserve"
           transform="scale(0.26458333)"
           id="text2319"
           style="font-style:normal;font-variant:normal;font-weight:normal;font-stretch:normal;font-size:85.3333px;line-height:0;font-family:'Showcard Gothic';-inkscape-font-specification:'Showcard Gothic';writing-mode:lr-tb;direction:ltr;white-space:pre;shape-inside:url(#rect2321);display:inline;fill:#00e7ff;fill-opacity:1;stroke:#000000;stroke-width:3.91937;stroke-linecap:round;stroke-opacity:0.497573;paint-order:markers fill stroke"><tspan
             x="325.5"
             y="-140.12501"
             id="tspan4">A</tspan></text><text
           xml:space="preserve"
           transform="matrix(0.26458333,0,0,0.26458333,10.451041,30.559375)"
           id="text2320"
           style="font-style:normal;font-variant:normal;font-weight:normal;font-stretch:normal;font-size:85.3333px;line-height:0;font-family:'Showcard Gothic';-inkscape-font-specification:'Showcard Gothic';writing-mode:lr-tb;direction:ltr;white-space:pre;shape-inside:url(#rect2322);display:inline;fill:#00e7ff;fill-opacity:1;stroke:#000000;stroke-width:3.91937;stroke-linecap:round;stroke-opacity:0.497573;paint-order:markers fill stroke"><tspan
             x="252.5"
             y="-284.62501"
             id="tspan9">OO</tspan></text><text
           xml:space="preserve"
           transform="matrix(0.19797491,0,0,0.19797491,99.955152,27.389918)"
           id="text2321"
           style="font-style:normal;font-variant:normal;font-weight:normal;font-stretch:normal;font-size:85.3333px;line-height:0;font-family:'Showcard Gothic';-inkscape-font-specification:'Showcard Gothic';writing-mode:lr-tb;direction:ltr;white-space:pre;shape-inside:url(#rect2323);display:inline;fill:#00e7ff;fill-opacity:1;stroke:#000000;stroke-width:3.91937;stroke-linecap:round;stroke-opacity:0.497573;paint-order:markers fill stroke"><tspan
             x="-75.5"
             y="-263.62501"
             id="tspan10">''''</tspan></text></g><g
         id="g2325"
         style="display:inline;stroke:#000000;stroke-opacity:0.497573"><g
           id="g2329"
           style="display:inline;fill:#6b4226;fill-opacity:1;stroke:#000000;stroke-opacity:0.497573"
           transform="translate(-0.396875,0.92604167)"><text
             xml:space="preserve"
             transform="scale(0.26458333)"
             id="text2327"
             style="font-style:normal;font-variant:normal;font-weight:normal;font-stretch:normal;font-size:85.3333px;line-height:0;font-family:'Showcard Gothic';-inkscape-font-specification:'Showcard Gothic';writing-mode:lr-tb;direction:ltr;white-space:pre;shape-inside:url(#rect2329);display:inline;fill:#6b4226;fill-opacity:1;stroke:#000000;stroke-width:3.91937;stroke-linecap:round;stroke-opacity:0.497573;paint-order:markers fill stroke"><tspan
               x="325.5"
               y="-140.12501"
               id="tspan11">A</tspan></text><text
             xml:space="preserve"
             transform="matrix(0.26458333,0,0,0.26458333,10.451041,30.559375)"
             id="text2328"
             style="font-style:normal;font-variant:normal;font-weight:normal;font-stretch:normal;font-size:85.3333px;line-height:0;font-family:'Showcard Gothic';-inkscape-font-specification:'Showcard Gothic';writing-mode:lr-tb;direction:ltr;white-space:pre;shape-inside:url(#rect2330);display:inline;fill:#6b4226;fill-opacity:1;stroke:#000000;stroke-width:3.91937;stroke-linecap:round;stroke-opacity:0.497573;paint-order:markers fill stroke"><tspan
               x="252.5"
               y="-284.62501"
               id="tspan12">OO</tspan></text><text
             xml:space="preserve"
             transform="matrix(0.19797491,0,0,0.19797491,99.955152,27.389918)"
             id="text2329"
             style="font-style:normal;font-variant:normal;font-weight:normal;font-stretch:normal;font-size:85.3333px;line-height:0;font-family:'Showcard Gothic';-inkscape-font-specification:'Showcard Gothic';writing-mode:lr-tb;direction:ltr;white-space:pre;shape-inside:url(#rect2331);display:inline;fill:#6b4226;fill-opacity:1;stroke:#000000;stroke-width:3.91937;stroke-linecap:round;stroke-opacity:0.497573;paint-order:markers fill stroke"><tspan
               x="-75.5"
               y="-263.62501"
               id="tspan13">''''</tspan></text></g><text
           xml:space="preserve"
           transform="scale(0.26458333)"
           id="text2323"
           style="font-style:normal;font-variant:normal;font-weight:normal;font-stretch:normal;font-size:85.3333px;line-height:0;font-family:'Showcard Gothic';-inkscape-font-specification:'Showcard Gothic';writing-mode:lr-tb;direction:ltr;white-space:pre;shape-inside:url(#rect2325);display:inline;fill:#f9d93a;fill-opacity:1;stroke:#000000;stroke-width:3.91937;stroke-linecap:round;stroke-opacity:0.497573;paint-order:markers fill stroke"><tspan
             x="325.5"
             y="-140.12501"
             id="tspan14">A</tspan></text><text
           xml:space="preserve"
           transform="matrix(0.26458333,0,0,0.26458333,10.451041,30.559375)"
           id="text2324"
           style="font-style:normal;font-variant:normal;font-weight:normal;font-stretch:normal;font-size:85.3333px;line-height:0;font-family:'Showcard Gothic';-inkscape-font-specification:'Showcard Gothic';writing-mode:lr-tb;direction:ltr;white-space:pre;shape-inside:url(#rect2326);display:inline;fill:#f9d93a;fill-opacity:1;stroke:#000000;stroke-width:3.91937;stroke-linecap:round;stroke-opacity:0.497573;paint-order:markers fill stroke"><tspan
             x="252.5"
             y="-284.62501"
             id="tspan15">OO</tspan></text><text
           xml:space="preserve"
           transform="matrix(0.19797491,0,0,0.19797491,99.955152,27.389918)"
           id="text2325"
           style="font-style:normal;font-variant:normal;font-weight:normal;font-stretch:normal;font-size:85.3333px;line-height:0;font-family:'Showcard Gothic';-inkscape-font-specification:'Showcard Gothic';writing-mode:lr-tb;direction:ltr;white-space:pre;shape-inside:url(#rect2327);display:inline;fill:#f9d93a;fill-opacity:1;stroke:#000000;stroke-width:3.91937;stroke-linecap:round;stroke-opacity:0.497573;paint-order:markers fill stroke"><tspan
             x="-75.5"
             y="-263.62501"
             id="tspan16">''''</tspan></text></g></g><circle
       style="fill:#f9d93a;fill-opacity:1;stroke:#000000;stroke-width:1.037;stroke-linecap:round;stroke-opacity:0.497573;paint-order:markers fill stroke"
       id="path2347"
       cx="-4.5016828"
       cy="12.566607"
       r="32.477604" /><path
       style="fill:#9d9d97;fill-opacity:1;stroke:#000000;stroke-width:1.037;stroke-linecap:round;stroke-opacity:0.497573;paint-order:markers fill stroke"
       d="m -9.1980358,-56.423498 c 0,0.220485 -0.2204853,0.661459 0,0.661459 0.2204852,0 0.1763897,-0.79375 0,-0.661459 -0.048144,0.03611 -0.579927,1.134473 -0.79375,1.455209 -0.056658,0.08499 -1.0922692,0.99932 -1.1906252,1.058333 -0.119576,0.07174 -0.280847,0.05494 -0.396875,0.132292 -0.650174,0.433451 -0.173379,0.30567 -0.661458,0.79375 -0.321032,0.321032 -0.821182,0.39757 -1.190625,0.661458 -0.113755,0.08125 -0.43275,1.444006 -0.396875,1.5875 0.09963,0.398505 0.346937,0.346937 0.661458,0.661458 0.131554,0.131554 0.365186,2.098053 0.264584,2.248958 -0.05469,0.08205 -0.185701,0.07313 -0.264584,0.132292 -0.09978,0.07484 -0.195397,0.160806 -0.264583,0.264583 -0.02445,0.03669 0.03669,0.107831 0,0.132292 -0.116028,0.07735 -0.280847,0.05494 -0.396875,0.132292 -0.03669,0.02447 0.03118,0.10111 0,0.132291 -0.06236,0.06236 -0.185701,-0.03944 -0.264583,0 -1.234724,0.617361 0.396875,-0.132291 -0.661459,0.661459 -0.07056,0.05292 -0.188957,-0.04538 -0.264583,0 -0.160428,0.09625 -0.244634,0.288131 -0.396875,0.396875 -0.160475,0.114625 -0.375171,0.141388 -0.529167,0.264583 -0.077,0.0616 -0.06257,0.19486 -0.132291,0.264583 -0.03118,0.03118 -0.09285,-0.01971 -0.132292,0 -0.09709,0.04855 -0.483,0.787543 -0.529167,0.926042 -0.06972,0.209172 0,0.440973 0,0.661458 0,0.264584 -0.06417,0.537068 0,0.79375 0.20864,0.834557 0.301522,0.427797 0.396875,1.190625 0.02188,0.175028 -0.03826,0.356979 0,0.529167 0.08976,0.403921 0.767297,1.920872 0.661459,1.984375 -0.203629,0.122177 -0.476026,0.116237 -0.661459,0.264583 -0.06887,0.0551 0.05292,0.194027 0,0.264584 -0.132291,0.176389 -0.430562,0.199665 -0.529166,0.396875 -0.06236,0.124724 -0.04518,0.287984 -0.132292,0.396875 -0.10545,0.131813 -0.914651,0.782358 -1.058333,0.926041 -0.473853,0.473854 -0.587661,1.116827 -1.058334,1.5875 -0.112426,0.112427 -0.284448,0.152157 -0.396875,0.264584 -0.339399,0.339398 -0.596894,0.861478 -0.926041,1.190625 -0.03118,0.03118 -0.101111,-0.03118 -0.132292,0 -0.06652,0.06652 0.06741,2.710716 0,2.778125 -0.391896,0.391896 -1.016386,0.480305 -1.455208,0.79375 -0.362731,0.259093 -0.785006,0.855523 -1.190625,1.058333 -0.07888,0.03944 -0.17639,0 -0.264584,0 -0.132291,0.08819 -0.272722,0.16526 -0.396875,0.264583 -0.146992,0.117593 -0.551214,0.595313 -0.661458,0.661459 -0.07563,0.04537 -0.18801,-0.04376 -0.264583,0 -0.12504,0.07145 -2.515931,1.78952 -2.645834,1.984375 -0.0986,0.147907 -0.05245,1.059498 0,1.190625 0.05905,0.147622 0.19348,0.254665 0.264584,0.396875 0.17145,0.3429 0.177525,0.710097 0.264583,1.058333 0.07969,0.318779 0.670322,1.222902 0.396875,1.5875 -0.0954,0.127196 -0.284448,0.152157 -0.396875,0.264583 -0.112427,0.112426 -0.193479,0.254666 -0.264583,0.396875 -0.01971,0.03944 0.03669,0.107831 0,0.132292 -0.01773,0.01182 -0.646602,0.234873 -0.661459,0.264583 -0.03944,0.07888 0.07338,0.215662 0,0.264583 -0.110074,0.07338 -0.27855,-0.05916 -0.396875,0 -2.686185,1.343093 0.389554,0.0044 -0.926041,0.79375 -0.119576,0.07175 -0.285316,0.04862 -0.396875,0.132292 -0.322257,0.241694 0.03994,0.244614 -0.264584,0.396875 -0.182477,0.09124 -0.118332,-0.160212 -0.264583,0.132292 -0.01971,0.03944 0.03944,0.11257 0,0.132291 -0.07888,0.03944 -0.180914,-0.02789 -0.264583,0 -0.151961,0.05065 -0.183544,0.315837 -0.264584,0.396875 -0.03118,0.03118 -0.10111,-0.03118 -0.132291,0 -0.06236,0.06236 0.02789,0.180915 0,0.264584 -0.106519,0.319554 -0.289052,0.602572 -0.396875,0.926041 -0.102026,0.306076 -0.82681,2.778142 -0.529167,3.175 0.352674,0.470232 0.404064,0.02876 0.529167,0.529167 0.03303,0.13213 0.06815,0.789744 0,0.926042 -0.126275,0.25255 -0.383895,0.419336 -0.529167,0.661458 -0.04722,0.07871 -0.212503,0.477086 -0.264583,0.529167 -0.06972,0.06972 -0.194861,0.06257 -0.264584,0.132291 -0.347032,0.347033 -0.115707,0.628291 -0.264583,0.926042 -0.01971,0.03944 -0.10111,-0.03118 -0.132292,0 -0.03221,0.03221 -0.0285,0.618704 0,0.661458 -0.326442,0.4005112 0.359842,0.22755 0.396875,0.2645836 0.08976,0.08976 -0.06054,0.408095 0,0.5291667 0.05578,0.1115581 0.208804,0.1530252 0.264584,0.2645833 0.05916,0.1183253 -0.02175,0.2663833 0,0.396875 0.06581,0.3948549 0.396875,0.9296982 0.396875,1.3229167 0,0.4065563 -0.462921,0.6897356 -0.79375,0.9260416 -0.07177,0.051262 -0.202221,-0.062363 -0.264584,0 -0.742087,0.742087 1.111833,-0.2966825 -0.264583,0.5291667 -0.119576,0.071745 -0.277299,0.060547 -0.396875,0.1322917 -0.213902,0.1283417 -0.321612,0.3907959 -0.529167,0.5291666 -0.295812,0.1972088 -0.624559,0.3407397 -0.926041,0.5291667 -0.25177,0.1573556 -2.65e-4,0.2648839 -0.132292,0.396875 -0.06972,0.069724 -0.19486,0.062568 -0.264583,0.1322916 -0.136528,0.1365274 -0.192231,0.3844626 -0.264584,0.5291667 -0.0441,0.088194 -0.220485,0.044097 -0.264583,0.1322917 -0.05916,0.1183253 0,0.2645833 0,0.396875 0,0.1763889 -0.06193,0.3640087 0,0.5291666 0.07742,0.2064475 0.319458,0.3227192 0.396875,0.5291667 0.06193,0.1651579 -0.029,0.3551777 0,0.5291666 0.07985,0.4791218 0.113371,0.094451 0.264583,0.396875 0.127096,0.2541919 0.0055,0.67241423 0.132292,0.92604169 0.01971,0.0394417 0.101111,-0.0311814 0.132292,0 0.06972,0.0697238 0.08819,0.17638897 0.132291,0.26458333 0.08351,0.16702061 -0.127,0.66675105 0,0.79374999 0.03853,0.0385342 0.275061,0.11133428 0.132292,0.39687499 -0.141946,0.2838937 -0.144468,0.00609 -0.396875,0.1322917 -0.01415,0.00707 -0.02413,0.6373185 0,0.6614583 0.03528,0.035278 0.49389,0.035278 0.529167,0 0.0913,-0.091298 0.240371,-0.9018283 0.396875,-1.05833332 0.0986,-0.0986044 0.280847,-0.0549399 0.396875,-0.13229167 0.207555,-0.13837073 0.379494,-0.32960548 0.529166,-0.52916666 0.02646,-0.0352777 -0.03944,-0.11257068 0,-0.13229166 0.07888,-0.03944171 0.180915,0.02788946 0.264584,0 0.113043,-0.03768143 0.972304,-0.46464564 1.058333,-0.52916666 0.246944,-0.18520834 0.414515,-0.47625 0.661458,-0.66145833 0.65527,-0.4914527 1.333926,-0.967372 1.984375,-1.4552083 0.225544,-0.1691582 0.551318,-0.4079507 0.79375,-0.5291667 0.07888,-0.039442 0.264584,0.088194 0.264584,0 0,-0.098604 -0.101111,-0.1710391 -0.132292,-0.2645833 -0.06234,-0.1870191 -0.0858,-1.0190213 0,-1.190625 0.139838,-0.279677 0.401423,-0.4743902 0.529167,-0.79375 0.326945,-0.8173656 -0.04567,-0.040963 0.264583,-0.6614583 0.0441,-0.088194 0.101111,-0.1710391 0.132292,-0.2645833 0.01394,-0.041834 -0.03944,-0.1125707 0,-0.1322917 0.07888,-0.039442 0.202221,0.062363 0.264583,0 0.06236,-0.062363 -0.03944,-0.1856999 0,-0.2645833 0.0081,-0.016275 0.510363,-0.1416942 0.529167,-0.1322917 0.224128,0.1120648 1.135425,0.9812404 1.190625,0.9260417 0.03118,-0.031181 -0.02646,-0.097014 0,-0.1322917 0.112252,-0.1496708 0.300619,-0.2364478 0.396875,-0.396875 0.04538,-0.075626 -0.04892,-0.1912011 0,-0.2645833 0.03724,-0.055862 0.584335,-0.3711673 0.661458,-0.396875 0.125502,-0.041834 0.303332,0.093544 0.396875,0 0.06972,-0.069724 0.05025,-0.2098874 0.132292,-0.2645834 0.07338,-0.048921 0.1857,0.039442 0.264583,0 0.167338,-0.083669 0.215373,-0.3514992 0.396875,-0.3968749 0.128341,-0.032085 0.271373,0.041834 0.396875,0 0.09354,-0.031181 0.03875,-0.233402 0.132292,-0.2645834 0.08367,-0.027889 0.1857,0.039442 0.264583,0 0.527137,-0.2635681 5.29e-4,-0.2647286 0.529167,-0.396875 0.458218,-0.1145545 0.07945,0.1675175 0.529166,-0.1322916 0.279556,-0.186371 0.335421,-0.3354195 0.529167,-0.5291667 0.06236,-0.062363 0.1857,0.039442 0.264583,0 0.05578,-0.02789 0.07651,-0.1044021 0.132292,-0.1322917 0.157766,-0.078883 0.388056,-0.1058333 0.529167,0 0.111559,0.083669 0.04862,0.2853169 0.132291,0.396875 0.05916,0.078883 0.194861,0.062568 0.264584,0.1322917 0.06972,0.069724 0.06257,0.1948595 0.132291,0.2645833 0.122817,0.122818 1.058662,0.4851241 1.322917,0.5291667 0.130492,0.021749 0.2868,0.073382 0.396875,0 0.07338,-0.048922 -0.03944,-0.1856999 0,-0.2645833 0.229468,-0.4589341 0.365924,-0.1013394 0.661458,-0.396875 0.03118,-0.031181 -0.04183,-0.1183468 0,-0.1322917 0.167339,-0.055779 0.371401,0.078883 0.529167,0 0.111559,-0.055779 0.146259,-0.2251416 0.264583,-0.2645833 0.186783,-0.062261 0.631151,-0.023892 0.79375,-0.1322917 0.271468,-0.1809781 0.378749,-0.3676189 0.661459,-0.5291667 0.09442,-0.053952 0.845182,-0.3435871 1.058333,-0.396875 0.04278,-0.010695 0.10111,0.031182 0.132292,0 0.112426,-0.1124266 0.152156,-0.2844486 0.264583,-0.3968746 0.267565,-0.267564 0.771041,-0.181407 1.058333,-0.396875 0.07888,-0.05916 0.06257,-0.19486 0.132292,-0.264584 0.23499,-0.234988 0.25836,0.25214 0.396875,0.529167 0.174294,0.348588 0.646036,0.7112903 1.058333,0.79375 0.265618,0.053123 1.1804017,0.2238937 1.4552085,0.1322916 0.4040187,-0.134673 0.6352593,-0.5204336 1.0583333,-0.6614586 0.1865921,-0.0622 0.8556889,-0.06194 0.9260417,-0.132291 0.031181,-0.03118 -0.036693,-0.107831 0,-0.132292 0.1449493,-0.09663 0.9694042,-0.430498 1.1906249,-0.264583 0.1496722,0.112253 0.2364476,0.300618 0.396875,0.396875 0.1063202,0.06379 0.4004813,0.06795 0.5291667,0.132291 0.3388995,0.169451 -0.021299,0.2539327 0.5291667,0.529167 0.078883,0.039442 0.1857004,-0.039442 0.2645833,0 0.6576192,0.3288092 1.3413052,0.396875 2.1166666,0.396875 0.1763898,0 0.3527769,0 0.5291667,0 0.088194,0 0.2156619,0.073382 0.2645833,0 0.097843,-0.1467645 -0.1247246,-0.4044409 0,-0.5291667 0.18403624,-0.1840373 2.6243571,-0.1108145 2.6458333,-0.1322917 0.1124268,-0.1124266 0.1521566,-0.2844486 0.2645833,-0.3968746 0.1818164,-0.181818 0.4639257,-0.232266 0.6614584,-0.396875 1.9539479,-1.62829 0.6280573,-0.573493 5.6885416,-1.190625 0.3127771,-0.03814 1.3067612,-0.300736 1.5874999,-0.132292 0.2060655,0.123639 0.2636917,0.475001 0.3968748,0.661458 0.361344,0.505881 0.915443,1.037135 1.190625,1.5875003 0.01971,0.039442 -0.03118,0.1011102 0,0.1322917 0.291161,0.2911605 0.71292,-0.844269 0.79375,-0.79375 0.373944,0.233715 0.508908,0.7217012 0.79375,1.0583333 0.808204,0.9551509 3.139393,1.8215589 4.101042,2.2489583 0.341926,0.1519679 0.512154,-0.5473525 0.79375,-0.79375 0.06699,-0.058619 0.829133,-0.2534279 0.926041,-0.1322916 0.315304,0.3941291 0.03988,0.6702104 0.132292,1.0583333 0.459579,1.9302298 0.515498,2.0893312 1.190625,3.4395833 0.06236,0.1247259 0.03369,0.2982706 0.132292,0.396875 0.06236,0.062363 0.180914,-0.02789 0.264583,0 0.553477,-0.2395609 0.153025,0.2088041 0.264583,0.2645833 0.362808,0.1814041 1.505826,-0.2956396 1.719792,0.1322917 0.179602,0.3592052 0.07468,-0.057609 0.264583,0.1322916 0.04618,0.046177 -0.05491,0.3694181 0,0.396875 0.07888,0.039442 0.180915,-0.027889 0.264584,0 0.146145,0.048715 0.573923,0.3521181 0.661458,0.2645833 0.127236,-0.1272365 0.386003,-1.5376609 0.264583,-1.7197916 -0.103777,-0.1556671 -0.313205,-0.2295377 -0.396875,-0.396875 -0.208994,-0.4179885 0.15462,-2.3254327 -0.132291,-3.0427083 -0.147556,-0.3688913 -0.513903,-0.689442 -0.661459,-1.0583333 -0.08819,-0.220486 0.0441,-0.220486 0,-0.396875 -0.118856,-0.4754201 -0.457036,-0.7817782 -0.661458,-1.190625 -0.02384,-0.047673 -0.258442,-0.9168303 -0.264583,-0.9260413 -0.05469,-0.08204 -0.194861,-0.06257 -0.264584,-0.132292 -0.132302,-0.132304 -0.21228,-0.504549 -0.264583,-0.661458 -0.03118,-0.09355 -0.10111,-0.171039 -0.132292,-0.264584 -0.02789,-0.08367 0.06236,-0.20222 0,-0.264583 -0.03118,-0.03118 -0.146235,0.04183 -0.132291,0 0.282448,-0.847345 1.551471,-0.244504 0.132291,-1.190625 -0.449931,-0.299955 -0.160684,0.0968 -0.661458,-0.529167 -0.0616,-0.077 -0.06257,-0.194859 -0.132292,-0.264583 -0.155908,-0.155907 -0.391429,-0.224704 -0.529166,-0.396875 -0.05509,-0.06887 0.02789,-0.180915 0,-0.264583 -0.01971,-0.05916 -0.09487,-0.0824 -0.132292,-0.132292 -0.169415,-0.225888 -0.359751,-0.43557 -0.529167,-0.661458 -0.142483,-0.189977 -0.122099,-0.471482 -0.264583,-0.661459 -0.05916,-0.07888 -0.19486,-0.06257 -0.264583,-0.132291 -0.06972,-0.06972 -0.07069,-0.187586 -0.132292,-0.264584 -0.368985,-0.46123 -0.911561,-1.176145 -1.322917,-1.5875 -0.03118,-0.03118 -0.112569,0.03944 -0.132291,0 -0.03944,-0.07888 0.03944,-0.1857 0,-0.264583 -0.02519,-0.0504 -0.283483,0.09449 -0.132292,-0.132292 0.06741,-0.101108 0.661458,-0.377629 0.661458,-0.529166 0,-0.01987 -0.930936,-0.576527 -1.058333,-0.661459 -0.602448,-0.401632 -1.082886,-1.131076 -1.5875,-1.719791 -0.243512,-0.284097 -0.554207,-0.506299 -0.79375,-0.79375 -0.262887,-0.315466 -0.723781,-1.252949 -0.926041,-1.455209 -0.03118,-0.03118 -0.118349,0.04183 -0.132292,0 -0.05908,-0.177225 -0.247499,-1.566181 -0.132292,-1.719791 0.242819,-0.32376 0.657453,-0.669469 0.396875,-1.190625 -0.183211,-0.366419 -0.979397,-1.032752 -1.190625,-1.455208 -0.07888,-0.157768 0.124725,-0.404441 0,-0.529167 -0.06972,-0.06972 -0.19486,-0.06257 -0.264583,-0.132292 -0.06236,-0.06236 0.03944,-0.1857 0,-0.264583 -0.07561,-0.151215 -0.280977,-0.545561 -0.396875,-0.661458 -0.161129,-0.16113 -0.295569,-0.06197 -0.396875,-0.264584 -0.03825,-0.0765 -0.02492,-0.64485 0,-0.661458 0.116028,-0.07735 0.285316,-0.04862 0.396875,-0.132292 0.129365,-0.09702 0.453652,-0.784241 0.264583,-0.926041 -0.145454,-0.109091 -0.373258,-0.03875 -0.529166,-0.132292 -0.08833,-0.053 -0.560565,-0.923809 -0.661459,-1.058333 -0.303921,-0.40523 0.08462,0.216908 -0.396875,-0.264584 -0.1650627,-0.165063 -0.7372004,-1.285561 -0.7937498,-1.455208 -0.055779,-0.167337 0.055779,-0.361829 0,-0.529167 -0.019711,-0.05916 -0.1044019,-0.07651 -0.1322916,-0.132291 -0.2002552,-0.400513 0.1082516,-1.154492 0,-1.5875 -0.072144,-0.288577 -0.4480666,-0.601642 -0.5291667,-0.926042 -0.021378,-0.08556 0.039441,-0.1857 0,-0.264583 -0.019711,-0.03944 -0.1125696,0.03944 -0.1322916,0 -0.024236,-0.04845 0.055652,-0.473515 0,-0.529167 -0.031181,-0.03118 -0.1125697,0.03944 -0.1322917,0 -0.2162863,-0.432573 0.2362359,-0.211037 0.396875,-0.264583 0.041833,-0.01394 0,-0.08819 0,-0.132292 0,-0.529167 0,-1.058333 0,-1.5875 0,-0.304774 -0.026715,-0.37016 0.2645833,-0.661458 0.095459,-0.09546 1.2994321,-0.941697 0.9260417,-1.190625 -0.1160278,-0.07735 -0.2808473,-0.05494 -0.396875,-0.132292 -0.3632227,-0.242149 -0.5814589,-0.658032 -0.9260417,-0.926042 -0.2029645,-0.157861 -0.4557553,-0.242596 -0.6614583,-0.396875 -0.1496721,-0.112252 -0.2446337,-0.288131 -0.396875,-0.396875 -0.2407126,-0.171936 -0.5570987,-0.219387 -0.79375,-0.396875 -0.09978,-0.07483 -0.1530244,-0.208803 -0.2645833,-0.264583 -0.078883,-0.03944 -0.1912012,0.04892 -0.2645833,0 -0.087297,-0.0582 -0.4383194,-0.570611 -0.5291667,-0.661458 -0.062362,-0.06236 -0.2251419,0.07888 -0.2645833,0 -0.039441,-0.07888 0.039441,-0.185701 0,-0.264584 -0.0064,-0.01278 -0.4382373,-0.173654 -0.5291667,-0.264583 -0.1124267,-0.112427 -0.1322917,-0.308681 -0.2645833,-0.396875 -0.073382,-0.04892 -0.1790224,0.02138 -0.2645834,0 -0.2774341,-0.06936 -0.5136991,-0.340865 -0.7937499,-0.396875 -0.3197834,-0.06396 -1.1327474,-0.08062 -1.4552084,0 -0.2383525,0.05959 -0.5091535,0.671465 -1.0583333,0.396875 -0.27192814,-0.135964 -0.020823,-0.285403 -0.26458331,-0.529167 -0.25139385,-0.251393 -0.6746478,-0.277772 -0.92604166,-0.529166 -0.37242484,-0.372425 -0.36099484,-0.550461 -0.66145832,-0.926042 -0.52366071,-0.654574 0.0261408,0.15843 -0.66145831,-0.529167 -0.2044118,-0.204411 -0.5714021,-0.788162 -0.6614583,-1.058333 -0.055779,-0.167338 0.055779,-0.361828 0,-0.529167 -0.1320695,-0.396208 -0.7571767,-1.061188 -0.9260417,-1.455208 -0.066146,-0.154339 0.044098,-0.485068 0,-0.661458 -0.023918,-0.09566 -0.108376,-0.168923 -0.1322917,-0.264583 -0.018203,-0.07278 -0.039986,-0.733772 0,-0.79375 0.3520043,-0.528008 0.7200821,0.219445 0.5291667,-0.926042 -0.022569,-0.135477 -0.3602249,-0.209611 -0.396875,-0.264583 -0.048922,-0.07338 0.062362,-0.202221 0,-0.264584 -0.2248535,-0.224853 -0.5393584,-0.338373 -0.79375,-0.529166 -0.9515713,-0.71368 0.2791857,0.146894 -0.396875,-0.529167 -0.32131,-0.32131 -0.1942597,0.03934 -0.396875,-0.264583 -0.109392,-0.164087 -0.1551913,-0.36508 -0.2645833,-0.529167 -0.054695,-0.08205 -0.2204852,-0.0441 -0.2645833,-0.132292 -0.097528,-0.195059 -0.077782,-0.575715 -0.1322917,-0.79375 -0.1321461,-0.528587 -0.1333077,-0.0021 -0.396875,-0.529166 -0.084222,-0.168447 -0.067948,-0.600718 -0.1322917,-0.79375 -0.099142,-0.297426 -0.051398,-0.551067 -0.1322916,-0.79375 -0.050279,-0.150837 -0.2143046,-0.246039 -0.2645834,-0.396875 -0.3555708,-1.06671 -0.395179,-0.857351 -1.0583333,-1.852084 -0.073382,-0.110074 0.041833,-0.271372 0,-0.396875 -0.090016,-0.270049 -0.3077448,-0.526362 -0.396875,-0.79375 -0.02789,-0.08367 0.062362,-0.202221 0,-0.264583 -0.098605,-0.0986 -0.2808472,-0.05494 -0.396875,-0.132292 -0.036692,-0.02447 0.031181,-0.10111 0,-0.132291 -0.098605,-0.09861 -0.29827,-0.03369 -0.396875,-0.132292 -0.062362,-0.06236 0.039441,-0.1857 0,-0.264583 -0.055779,-0.111559 -0.2251419,-0.146259 -0.2645833,-0.264584 -0.055779,-0.167338 0,-0.705556 0,-0.529166 0,0.46864 -0.1322917,0.837615 -0.1322917,1.322916 0,0.08819 0.062362,0.202221 0,0.264584 -0.031181,0.03118 -0.1011105,-0.03118 -0.1322916,0 -0.062362,0.06236 0,0.176389 0,0.264583 0,0.33024 -0.1059709,2.354585 0,2.513542 0.2198026,0.329705 0.5513546,0.594891 0.396875,1.058333 -0.1765433,0.529627 -0.97282,0.646115 -1.190625,1.190625 -0.049133,0.12283 0,0.264583 0,0.396875 0,0.0441 -0.039441,0.11257 0,0.132292 0.3211671,0.160583 0.2782861,-0.104889 0.5291667,0.396875 0.1657561,0.331512 0.037497,1.060442 0,1.322916 z"
       id="path2349" /><path
       style="fill:#9d9d97;fill-opacity:1;stroke:#000000;stroke-width:1.037;stroke-linecap:round;stroke-opacity:0.497573;paint-order:markers fill stroke"
       d="m -25.866786,-20.572457 c 0.316254,-1.423148 0.119423,-1.070494 0.926042,-2.38125 0.271047,-0.44045 1.52314,-1.918824 2.116667,-2.116666 0.08367,-0.02789 0.182697,0.03275 0.264583,0 0.192352,-0.07694 0.754626,-0.624656 1.058333,-0.396875 0.127196,0.0954 0.137388,0.301478 0.264584,0.396875 0.554561,0.41592 1.234551,0.546737 1.852083,0.79375 0.261781,0.104713 0.355769,0.35577 0.529167,0.529166 0.406056,0.406057 0.109997,-0.07729 0.529166,0.132292 0.03944,0.01972 -0.03118,0.10111 0,0.132292 0.106453,0.106453 0.746673,0.354267 0.926042,0.264583 0.216522,-0.108261 1.607717,-1.495641 1.719792,-1.719791 0.109471,-0.218945 0.01177,-0.529167 0.396875,-0.529167"
       id="path2351" /><path
       style="fill:#9d9d97;fill-opacity:1;stroke:#000000;stroke-width:1.037;stroke-linecap:round;stroke-opacity:0.497573;paint-order:markers fill stroke"
       d="m 15.011339,-21.498498 c -0.957212,0.07841 -1.380072,-0.359307 -2.248958,-0.79375 -0.352777,-0.176389 -0.71355,-0.337621 -1.058334,-0.529167 -0.310438,-0.172465 -0.538064,-0.538063 -0.79375,-0.79375 -0.183991,-0.183992 -0.609759,-0.477466 -0.79375,-0.661458 -0.06972,-0.06972 -0.06257,-0.19486 -0.1322914,-0.264584 -0.04717,-0.324976 -0.2808473,-0.05494 -0.396875,-0.132291 -0.1037775,-0.06919 -0.1608058,-0.195398 -0.2645834,-0.264583 -0.2927826,-0.19519 -1.4232148,0.662321 -1.5874999,0.793749 -0.068868,0.05509 0.062362,0.202221 0,0.264584 -0.093544,0.09354 -0.2785507,-0.05916 -0.396875,0 -0.1115589,0.05578 -0.1530244,0.208804 -0.2645834,0.264583 -0.078883,0.03944 -0.1809141,-0.02789 -0.2645833,0 -0.1474046,0.04913 -0.9312539,0.402087 -1.0583333,0.529167 -0.062362,0.06236 0.062362,0.20222 0,0.264583 -0.031181,0.03118 -0.088194,0 -0.1322917,0 -0.6198076,0 -0.3538617,-0.883027 -0.5291666,-1.058333 -0.111588,-0.111588 -1.6484309,-0.06093 -1.7197917,-0.132292 -0.031181,-0.03118 0.039442,-0.112571 0,-0.132292 -0.6732561,-0.336627 0.2589107,0.655786 -0.6614583,-0.264583 -0.031181,-0.03118 0.031181,-0.10111 0,-0.132292 -0.031181,-0.03118 -0.095599,0.02446 -0.1322917,0 -0.1037775,-0.06919 -0.1530244,-0.208804 -0.2645833,-0.264583 -0.3147192,-0.157359 -1.1684185,0.79375 -0.9260416,0.79375 0.3179894,0 -0.3527769,-0.529167 -0.52916671,-0.79375 -0.0819706,-0.122957 0.0667411,-0.395684 0,-0.529166 -0.0711041,-0.14221 -0.17638977,-0.264584 -0.26458333,-0.396875 -0.19090481,-0.286357 -0.18619523,-0.610021 -0.39687499,-0.926042 -0.0244475,-0.03669 -0.10111052,0.03118 -0.13229167,0 -0.11024394,-0.110243 0.11024394,-0.551215 0,-0.661458 -0.03118115,-0.03118 -0.10111052,0.03118 -0.13229167,0 -0.06115314,-0.06115 0.03993621,-0.317001 0,-0.396875 -0.24766851,-0.495335 -0.84498919,-0.09177 -1.19062503,-0.264584 -0.1115589,-0.05578 -0.1530244,-0.208804 -0.2645833,-0.264583 -0.1136332,-0.05682 -0.2042371,-0.03597 -0.396875,-0.132292 -0.1101434,-0.05507 -0.4452514,0.08391 -0.5291666,0 -0.1763898,-0.176389 0.2204852,-0.132291 -0.1322917,-0.132291"
       id="path2352" /><path
       style="fill:#9d9d97;fill-opacity:1;stroke:#000000;stroke-width:1.037;stroke-linecap:round;stroke-opacity:0.497573;paint-order:markers fill stroke"
       d="m -15.680327,-38.960998 c 0.132291,-0.17639 0.573264,-0.396875 0.396875,-0.529167 -0.17639,-0.132291 -0.569045,0.666904 -0.396875,0.529167 0.389577,-0.311663 0.685448,-0.726879 1.058333,-1.058333 0.181202,-0.161068 1.887326,-0.577692 2.248958,-0.396875 0.416946,0.208473 0.747244,0.484105 1.190625,0.661458 0.04094,0.01638 0.101111,-0.03118 0.132292,0 0.03118,0.03118 -0.03118,0.101111 0,0.132292 0.06615,0.06615 0.330729,-0.06615 0.396875,0 0.214627,0.214627 0.348721,0.557212 0.6614582,0.661458 0.3717104,0.123904 0.1981835,-0.198183 0.396875,-0.396875 0.062362,-0.06236 0.1809141,0.02789 0.2645833,0 0.059163,-0.01971 0.076512,-0.104402 0.1322917,-0.132292 0.039441,-0.01971 0.1011105,0.03118 0.1322916,0 0.062362,-0.06236 -0.078883,-0.225142 0,-0.264583 0.078883,-0.03944 0.1809142,0.02789 0.2645833,0 0.1183244,-0.03944 0.1763898,-0.17639 0.2645834,-0.264583 0.069723,-0.06972 0.2204852,-0.0441 0.2645833,-0.132292 0.039441,-0.07888 -0.039441,-0.1857 0,-0.264583 0.00894,-0.01786 0.6258877,-0.02371 0.6614583,0 0.3727371,0.248491 0.6917135,0.529166 1.190625,0.529166 0.1793134,0 0.5123074,-0.07458 0.6614583,0 0.055779,0.02789 0.076512,0.104402 0.1322917,0.132292 0.078883,0.03944 0.202221,-0.06236 0.2645833,0 0.031181,0.03118 -0.031181,0.101111 0,0.132292 0.093544,0.09354 0.7790974,0 0.9260417,0 0.056295,0 0.6403472,0.04222 0.6614583,0 0.059163,-0.118325 -0.093543,-0.303332 0,-0.396875 0.087302,-0.0873 0.4241747,-0.186894 0.5291667,-0.396875 0.070556,-0.141111 -0.070557,-0.388057 0,-0.529167 0.02789,-0.05578 0.1125696,-0.07313 0.1322916,-0.132292 0.041833,-0.125502 -0.093543,-0.303331 0,-0.396875 0.031181,-0.03118 0.1011106,0.03118 0.1322917,0 5.292e-4,-5.29e-4 0.2770082,-0.409299 0.396875,-0.529166"
       id="path2353" /><path
       style="fill:#9d9d97;fill-opacity:1;stroke:#000000;stroke-width:1.037;stroke-linecap:round;stroke-opacity:0.497573;paint-order:markers fill stroke"
       d="m 2.0467557,-46.501623 c -0.4490747,0.200062 -2.09317431,-0.210185 -2.51354166,0 -0.65137774,0.325689 -0.2712085,0.396875 -1.05833334,0.396875 -0.3923189,0 -1.9749637,-0.141703 -2.2489583,0.132292 -0.031181,0.03118 0.031181,0.10111 0,0.132291 -0.062362,0.06236 -0.202221,-0.06236 -0.2645833,0 -0.081277,0.08128 -0.087397,0.308282 -0.2645833,0.396875 -0.039441,0.01971 -0.088194,0 -0.1322917,0 -0.2204852,0.220486 -0.4585335,0.424712 -0.6614583,0.661459 -0.064172,0.07487 -0.044098,0.308681 -0.1322917,0.264583 -0.2273617,-0.113681 -0.5921957,-0.724487 -0.79375,-0.926042 -0.09616,-0.09616 -0.5652981,-0.168423 -0.6614583,-0.264583 -0.062362,-0.06236 0,-0.17639 0,-0.264583"
       id="path2354" /><path
       style="fill:#9d9d97;fill-opacity:1;stroke:#000000;stroke-width:1.037;stroke-linecap:round;stroke-opacity:0.497573;paint-order:markers fill stroke"
       d="m -10.388661,-14.883915 c 1.6376387,-1.305426 3.7651744,-3.073213 5.8208334,-4.101042 0.1250448,-0.06252 1.4801665,1.136959 1.8520833,1.322917 0.1577658,0.07888 0.3562033,-0.03459 0.5291667,0 0.5323575,0.106472 0.060783,0.09654 0.396875,0.264583 0.1652746,0.08264 1.50097593,0.04452 1.8520833,0.132292 0.04184385,0.01046 0.42162412,0.239835 0.52916666,0.132292 0.13944864,-0.139448 0.15519135,-0.365079 0.26458333,-0.529167 -0.0132027,-0.262077 0.19486031,-0.06257 0.26458331,-0.132292 0.00717,-0.0072 0.2574158,-0.389706 0.2645834,-0.396875 0.066146,-0.06615 0.3307291,0.06615 0.3968749,0 0.1232139,-0.123212 -0.010372,-0.132291 0.2645834,-0.132291 0.4156366,0 0.2745396,0.03243 0.6614583,0.264583 0.1195758,0.07174 0.2808473,0.05494 0.396875,0.132292 0.036692,0.02446 -0.031181,0.10111 0,0.132291 0.061153,0.06115 0.3169999,-0.03994 0.396875,0 0.5505661,0.275283 -0.1414251,-0.0091 0.1322917,0.264584 0.068546,0.06855 0.772824,0.396875 0.7937499,0.396875"
       id="path2355" /><path
       style="fill:#9d9d97;fill-opacity:1;stroke:#000000;stroke-width:1.037;stroke-linecap:round;stroke-opacity:0.497573;paint-order:markers fill stroke"
       d="m -25.734494,-20.440165 c -0.396875,0.176389 -0.802169,0.334939 -1.190625,0.529167 -1.234723,0.617361 0.396875,-0.132292 -0.661458,0.661458 -0.07056,0.05292 -0.185701,-0.03944 -0.264584,0 -0.08819,0.0441 -0.0441,0.220486 -0.132291,0.264583 -0.07888,0.03944 -0.202221,-0.06236 -0.264584,0 -0.273716,0.273717 0.418275,-0.0107 -0.132291,0.264584 -0.121973,0.06099 -1.449433,0.126515 -1.455209,0.132291 -0.273716,0.273717 0.418275,-0.0107 -0.132291,0.264584 -0.07888,0.03944 -0.202221,-0.06236 -0.264584,0 -0.139448,0.139447 -0.125134,0.389719 -0.264583,0.529166 -0.03118,0.03118 -0.10111,-0.03118 -0.132292,0 -0.02437,0.02438 -0.107915,0.372499 -0.132291,0.396875 -0.03118,0.03118 -0.11257,-0.03944 -0.132292,0 -0.05916,0.118326 0.09354,0.303331 0,0.396875 -0.03118,0.03118 -0.10111,-0.03118 -0.132292,0 -0.06115,0.06115 0.03994,0.317001 0,0.396875 -0.09647,0.192937 -0.211629,0.211631 -0.264583,0.264584 -0.09166,0.09166 -0.04063,0.569799 -0.132292,0.661458 -0.03118,0.03118 -0.10111,-0.03118 -0.132291,0 -0.08819,0.08819 0.08819,0.440972 0,0.529167 -0.06972,0.06972 -0.17639,0.08819 -0.264584,0.132291"
       id="path2356" /><ellipse
       style="fill:#c4c2b5;fill-opacity:1;stroke:#000000;stroke-width:0.780625;stroke-linecap:round;stroke-opacity:0.208872;paint-order:markers fill stroke"
       id="path2359"
       cx="-6.4860568"
       cy="12.906154"
       rx="1.3890625"
       ry="1.0495137" /><ellipse
       style="fill:#c4c2b5;fill-opacity:1;stroke:#000000;stroke-width:0.780625;stroke-linecap:round;stroke-opacity:0.208872;paint-order:markers fill stroke"
       id="path2360"
       cx="-2.1865778"
       cy="12.661415"
       rx="1.4552083"
       ry="1.0869963" /><path
       style="fill:#1c110a;fill-opacity:1;stroke:#000000;stroke-width:1.037;stroke-linecap:round;stroke-opacity:0.619224;paint-order:markers fill stroke"
       d="m -14.357411,32.608793 c 6.7618003,-2.386518 2.954311,-1.274027 17.3302083,-1.719792 0.9809136,-0.03042 2.3101485,0.349475 3.175,0.926042"
       id="path2363" /><ellipse
       style="fill:#1c110a;fill-opacity:1;stroke:#000000;stroke-width:1.037;stroke-linecap:round;stroke-opacity:0.619224;paint-order:markers fill stroke"
       id="path2364"
       cx="-17.521744"
       cy="6.5919614"
       rx="8.4666662"
       ry="8.7973957" /><ellipse
       style="fill:#1c110a;fill-opacity:1;stroke:#000000;stroke-width:1.08369;stroke-linecap:round;stroke-opacity:0.619224;paint-order:markers fill stroke"
       id="ellipse2364"
       cx="9.0688801"
       cy="5.7320657"
       rx="8.4433222"
       ry="9.6339474" /><g
       id="g2364"
       transform="translate(-59.928125,28.971876)"
       style="display:inline"><ellipse
         style="fill:#fefbea;fill-opacity:1;stroke:#000000;stroke-width:1.037;stroke-linecap:round;stroke-opacity:0.229205;paint-order:markers fill stroke"
         id="path2348"
         cx="42.329571"
         cy="-24.80579"
         rx="8.0036459"
         ry="8.0697918" /><ellipse
         style="fill:#fefbea;fill-opacity:1;stroke:#000000;stroke-width:1.037;stroke-linecap:round;stroke-opacity:0.229205;paint-order:markers fill stroke"
         id="ellipse2348"
         cx="69.052483"
         cy="-24.673498"
         rx="8.0036459"
         ry="8.0697918" /><g
         id="g2363"
         transform="translate(60.854167,-30.1625)"><ellipse
           style="fill:#000000;fill-opacity:1;stroke:#000000;stroke-width:1.037;stroke-linecap:round;stroke-opacity:0.966728;paint-order:markers fill stroke"
           id="path2357"
           cx="8.3967552"
           cy="5.35671"
           rx="6.614583"
           ry="6.2177081" /><ellipse
           style="fill:#000000;fill-opacity:1;stroke:#000000;stroke-width:1.037;stroke-linecap:round;stroke-opacity:0.966728;paint-order:markers fill stroke"
           id="ellipse2357"
           cx="-18.723036"
           cy="5.6212931"
           rx="6.614583"
           ry="6.2177081" /><circle
           style="fill:#f5f4f2;fill-opacity:1;stroke:none;stroke-width:1.037;stroke-linecap:round;stroke-opacity:0.208872;paint-order:markers fill stroke"
           id="path2361"
           cx="11.17488"
           cy="2.1817095"
           r="3.0427084" /><circle
           style="fill:#f5f4f2;fill-opacity:1;stroke:none;stroke-width:1.037;stroke-linecap:round;stroke-opacity:0.208872;paint-order:markers fill stroke"
           id="circle2361"
           cx="-16.606369"
           cy="2.049418"
           r="3.0427084" /></g></g></g><g
     inkscape:label="Happy Boy Digital"
     inkscape:groupmode="layer"
     id="layer1"
     transform="translate(33.002627,1.5835054)"
     style="display:inline"><text
       xml:space="preserve"
       transform="matrix(0.26458333,0,0,0.26458333,1.1906248,-0.26459065)"
       id="text1"
       style="font-style:normal;font-variant:normal;font-weight:normal;font-stretch:normal;font-size:85.3333px;line-height:0;font-family:'Showcard Gothic';-inkscape-font-specification:'Showcard Gothic';writing-mode:lr-tb;direction:ltr;white-space:pre;shape-inside:url(#rect1);display:inline;fill:#00e7ff;fill-opacity:0.592157;stroke:none;stroke-width:3.91937;stroke-linecap:round"><tspan
         x="10.78125"
         y="550.92382"
         id="tspan17">Happy boy digital</tspan></text><text
       xml:space="preserve"
       transform="matrix(0.26458333,0,0,0.26458333,5.1593751,-2.9104187)"
       id="text2"
       style="font-style:normal;font-variant:normal;font-weight:normal;font-stretch:normal;font-size:85.3333px;line-height:0;font-family:'Showcard Gothic';-inkscape-font-specification:'Showcard Gothic';writing-mode:lr-tb;direction:ltr;white-space:pre;shape-inside:url(#rect2);display:inline;fill:#ff00c8;fill-opacity:1;stroke:none;stroke-width:3.91937;stroke-linecap:round;stroke-opacity:0.866505"><tspan
         x="10.78125"
         y="550.92382"
         id="tspan18">Happy boy digital</tspan></text><text
       xml:space="preserve"
       transform="matrix(0.26458333,0,0,0.26458333,2.7781249,-0.92604898)"
       id="text4"
       style="font-style:normal;font-variant:normal;font-weight:normal;font-stretch:normal;font-size:85.3333px;line-height:0;font-family:'Showcard Gothic';-inkscape-font-specification:'Showcard Gothic';writing-mode:lr-tb;direction:ltr;white-space:pre;shape-inside:url(#rect4);display:inline;fill:#6b4226;fill-opacity:1;stroke:none;stroke-width:3.91937;stroke-linecap:round"><tspan
         x="10.78125"
         y="550.92382"
         id="tspan19">Happy boy digital</tspan></text><text
       xml:space="preserve"
       transform="matrix(0.26458333,0,0,0.26458333,3.7041666,-1.8520906)"
       id="text3"
       style="font-style:normal;font-variant:normal;font-weight:normal;font-stretch:normal;font-size:85.3333px;line-height:0;font-family:'Showcard Gothic';-inkscape-font-specification:'Showcard Gothic';writing-mode:lr-tb;direction:ltr;white-space:pre;shape-inside:url(#rect3);display:inline;fill:#f9d93a;fill-opacity:1;stroke:#000000;stroke-width:3.91937;stroke-linecap:round;stroke-opacity:0.497573"><tspan
         x="10.78125"
         y="550.92382"
         id="tspan20">Happy boy digital</tspan></text></g><g
     inkscape:groupmode="layer"
     id="layer14"
     inkscape:label="Services"
     style="display:inline"
     transform="translate(37.497787,65.837725)"><text
       xml:space="preserve"
       id="text2331"
       style="font-style:normal;font-variant:normal;font-weight:normal;font-stretch:normal;font-size:85.3333px;line-height:0;font-family:'Showcard Gothic';-inkscape-font-specification:'Showcard Gothic';writing-mode:lr-tb;direction:ltr;white-space:pre;shape-inside:url(#rect2332);display:inline;fill:#00e7ff;fill-opacity:0.592157;stroke:none;stroke-width:3.91937;stroke-linecap:round;stroke-opacity:1;paint-order:markers fill stroke"
       transform="matrix(0.26458333,0,0,0.26458333,86.783333,13.758333)"><tspan
         x="21"
         y="445.37499"
         id="tspan21">Services</tspan></text><text
       xml:space="preserve"
       id="text2345"
       style="font-style:normal;font-variant:normal;font-weight:normal;font-stretch:normal;font-size:85.3333px;line-height:0;font-family:'Showcard Gothic';-inkscape-font-specification:'Showcard Gothic';writing-mode:lr-tb;direction:ltr;white-space:pre;shape-inside:url(#rect2345);display:inline;fill:#ff00c8;fill-opacity:1;stroke:none;stroke-width:3.91937;stroke-linecap:round;stroke-opacity:1;paint-order:markers fill stroke"
       transform="matrix(0.26458333,0,0,0.26458333,90.355205,10.451042)"><tspan
         x="21"
         y="445.37499"
         id="tspan22">Services</tspan></text><text
       xml:space="preserve"
       id="text2347"
       style="font-style:normal;font-variant:normal;font-weight:normal;font-stretch:normal;font-size:85.3333px;line-height:0;font-family:'Showcard Gothic';-inkscape-font-specification:'Showcard Gothic';writing-mode:lr-tb;direction:ltr;white-space:pre;shape-inside:url(#rect2347);display:inline;fill:#6b4226;fill-opacity:1;stroke:none;stroke-width:3.91937;stroke-linecap:round;stroke-opacity:1;paint-order:markers fill stroke"
       transform="matrix(0.26458333,0,0,0.26458333,87.444791,12.567708)"><tspan
         x="21"
         y="445.37499"
         id="tspan23">Services</tspan></text><text
       xml:space="preserve"
       id="text2346"
       style="font-style:normal;font-variant:normal;font-weight:normal;font-stretch:normal;font-size:85.3333px;line-height:0;font-family:'Showcard Gothic';-inkscape-font-specification:'Showcard Gothic';writing-mode:lr-tb;direction:ltr;white-space:pre;shape-inside:url(#rect2346);display:inline;fill:#f9d93a;fill-opacity:1;stroke:#000000;stroke-width:3.91937;stroke-linecap:round;stroke-opacity:0.497573;paint-order:markers fill stroke"
       transform="matrix(0.26458333,0,0,0.26458333,88.63542,11.641667)"><tspan
         x="21"
         y="445.37499"
         id="tspan24">Services</tspan></text></g><g
     inkscape:groupmode="layer"
     id="layer16"
     inkscape:label="Works"
     style="display:inline"
     transform="translate(37.497787,65.837725)"><text
       xml:space="preserve"
       id="text2332"
       style="font-style:normal;font-variant:normal;font-weight:normal;font-stretch:normal;font-size:85.3333px;line-height:0;font-family:'Showcard Gothic';-inkscape-font-specification:'Showcard Gothic';writing-mode:lr-tb;direction:ltr;white-space:pre;shape-inside:url(#rect2333);display:inline;fill:#00e7ff;fill-opacity:0.592157;stroke:none;stroke-width:3.91937;stroke-linecap:round;stroke-opacity:1;paint-order:markers fill stroke"
       transform="matrix(0.26458333,0,0,0.26458333,-4.3656251,-19.314583)"><tspan
         x="9.5"
         y="574.87499"
         id="tspan25">Works</tspan></text><text
       xml:space="preserve"
       id="text2343"
       style="font-style:normal;font-variant:normal;font-weight:normal;font-stretch:normal;font-size:85.3333px;line-height:0;font-family:'Showcard Gothic';-inkscape-font-specification:'Showcard Gothic';writing-mode:lr-tb;direction:ltr;white-space:pre;shape-inside:url(#rect2343);display:inline;fill:#ff00c8;fill-opacity:1;stroke:none;stroke-width:3.91937;stroke-linecap:round;stroke-opacity:1;paint-order:markers fill stroke"
       transform="matrix(0.26458333,0,0,0.26458333,0.13229166,-24.209375)"><tspan
         x="9.5"
         y="574.87499"
         id="tspan26">Works</tspan></text><text
       xml:space="preserve"
       id="text2344"
       style="font-style:normal;font-variant:normal;font-weight:normal;font-stretch:normal;font-size:85.3333px;line-height:0;font-family:'Showcard Gothic';-inkscape-font-specification:'Showcard Gothic';writing-mode:lr-tb;direction:ltr;white-space:pre;shape-inside:url(#rect2344);display:inline;fill:#6b4226;fill-opacity:1;stroke:none;stroke-width:3.91937;stroke-linecap:round;stroke-opacity:1;paint-order:markers fill stroke"
       transform="matrix(0.26458333,0,0,0.26458333,-3.3072921,-21.034375)"><tspan
         x="9.5"
         y="574.87499"
         id="tspan27">Works</tspan></text><text
       xml:space="preserve"
       id="text2342"
       style="font-style:normal;font-variant:normal;font-weight:normal;font-stretch:normal;font-size:85.3333px;line-height:0;font-family:'Showcard Gothic';-inkscape-font-specification:'Showcard Gothic';writing-mode:lr-tb;direction:ltr;white-space:pre;shape-inside:url(#rect2342);display:inline;fill:#f9d93a;fill-opacity:1;stroke:#000000;stroke-width:3.91937;stroke-linecap:round;stroke-opacity:0.497573;paint-order:markers fill stroke"
       transform="matrix(0.26458333,0,0,0.26458333,-1.9843767,-22.754167)"><tspan
         x="9.5"
         y="574.87499"
         id="tspan28">Works</tspan></text></g><g
     inkscape:groupmode="layer"
     id="layer17"
     inkscape:label="Atelier"
     style="display:inline"
     transform="translate(37.497787,65.837725)"><text
       xml:space="preserve"
       id="text2333"
       style="font-style:normal;font-variant:normal;font-weight:normal;font-stretch:normal;font-size:85.3333px;line-height:0;font-family:'Showcard Gothic';-inkscape-font-specification:'Showcard Gothic';writing-mode:lr-tb;direction:ltr;white-space:pre;shape-inside:url(#rect2334);display:inline;fill:#00e7ff;fill-opacity:0.592157;stroke:none;stroke-width:3.91937;stroke-linecap:round;stroke-opacity:1;paint-order:markers fill stroke"
       transform="matrix(0.26458333,0,0,0.26458333,7.9375,-88.370833)"><tspan
         x="-32.5"
         y="735.87499"
         id="tspan29">Happy Boy Atelier</tspan></text><text
       xml:space="preserve"
       id="text2339"
       style="font-style:normal;font-variant:normal;font-weight:normal;font-stretch:normal;font-size:85.3333px;line-height:0;font-family:'Showcard Gothic';-inkscape-font-specification:'Showcard Gothic';writing-mode:lr-tb;direction:ltr;white-space:pre;shape-inside:url(#rect2339);display:inline;fill:#ff00c8;fill-opacity:1;stroke:none;stroke-width:3.91937;stroke-linecap:round;stroke-opacity:1;paint-order:markers fill stroke"
       transform="matrix(0.26458333,0,0,0.26458333,11.906251,-91.810416)"><tspan
         x="-32.5"
         y="735.87499"
         id="tspan30">Happy Boy Atelier</tspan></text><text
       xml:space="preserve"
       id="text2340"
       style="font-style:normal;font-variant:normal;font-weight:normal;font-stretch:normal;font-size:85.3333px;line-height:0;font-family:'Showcard Gothic';-inkscape-font-specification:'Showcard Gothic';writing-mode:lr-tb;direction:ltr;white-space:pre;shape-inside:url(#rect2340);display:inline;fill:#6b4226;fill-opacity:1;stroke:none;stroke-width:3.91937;stroke-linecap:round;stroke-opacity:1;paint-order:markers fill stroke"
       transform="matrix(0.26458333,0,0,0.26458333,9.1281251,-89.826041)"><tspan
         x="-32.5"
         y="735.87499"
         id="tspan31">Happy Boy Atelier</tspan></text><text
       xml:space="preserve"
       id="text2341"
       style="font-style:normal;font-variant:normal;font-weight:normal;font-stretch:normal;font-size:85.3333px;line-height:0;font-family:'Showcard Gothic';-inkscape-font-specification:'Showcard Gothic';writing-mode:lr-tb;direction:ltr;white-space:pre;shape-inside:url(#rect2341);display:inline;fill:#f9d93a;fill-opacity:1;stroke:#000000;stroke-width:3.91937;stroke-linecap:round;stroke-opacity:0.497573;paint-order:markers fill stroke"
       transform="matrix(0.26458333,0,0,0.26458333,10.054168,-90.4875)"><tspan
         x="-32.5"
         y="735.87499"
         id="tspan32">Happy Boy Atelier</tspan></text></g><g
     inkscape:groupmode="layer"
     id="layer18"
     inkscape:label="About"
     style="display:inline"
     transform="translate(37.497787,65.837725)"><text
       xml:space="preserve"
       id="text2338"
       style="font-style:normal;font-variant:normal;font-weight:normal;font-stretch:normal;font-size:85.3333px;line-height:0;font-family:'Showcard Gothic';-inkscape-font-specification:'Showcard Gothic, Normal';font-variant-ligatures:normal;font-variant-caps:normal;font-variant-numeric:normal;font-variant-east-asian:normal;writing-mode:lr-tb;direction:ltr;white-space:pre;shape-inside:url(#rect2338);display:inline;fill:#00e7ff;fill-opacity:0.592157;stroke:none;stroke-width:3.91937;stroke-linecap:round;stroke-opacity:1;paint-order:markers fill stroke"
       transform="matrix(0.26458333,0,0,0.26458333,85.725,-78.647396)"><tspan
         x="-109.5"
         y="893.37499"
         id="tspan33">Hi, I'm Hunter</tspan></text><text
       xml:space="preserve"
       id="text2337"
       style="font-style:normal;font-variant:normal;font-weight:normal;font-stretch:normal;font-size:85.3333px;line-height:0;font-family:'Showcard Gothic';-inkscape-font-specification:'Showcard Gothic, Normal';font-variant-ligatures:normal;font-variant-caps:normal;font-variant-numeric:normal;font-variant-east-asian:normal;writing-mode:lr-tb;direction:ltr;white-space:pre;shape-inside:url(#rect2337);display:inline;fill:#ff00c8;fill-opacity:1;stroke:none;stroke-width:3.91937;stroke-linecap:round;stroke-opacity:1;paint-order:markers fill stroke"
       transform="matrix(0.26458333,0,0,0.26458333,88.370828,-81.094792)"><tspan
         x="-109.5"
         y="893.37499"
         id="tspan34">Hi, I'm Hunter</tspan></text><text
       xml:space="preserve"
       id="text2336"
       style="font-style:normal;font-variant:normal;font-weight:normal;font-stretch:normal;font-size:85.3333px;line-height:0;font-family:'Showcard Gothic';-inkscape-font-specification:'Showcard Gothic, Normal';font-variant-ligatures:normal;font-variant-caps:normal;font-variant-numeric:normal;font-variant-east-asian:normal;writing-mode:lr-tb;direction:ltr;white-space:pre;shape-inside:url(#rect2336);display:inline;fill:#6b4226;fill-opacity:1;stroke:none;stroke-width:3.91937;stroke-linecap:round;stroke-opacity:1;paint-order:markers fill stroke"
       transform="matrix(0.26458333,0,0,0.26458333,86.254167,-79.375)"><tspan
         x="-109.5"
         y="893.37499"
         id="tspan35">Hi, I'm Hunter</tspan></text><text
       xml:space="preserve"
       id="text2334"
       style="font-style:normal;font-variant:normal;font-weight:normal;font-stretch:normal;font-size:85.3333px;line-height:0;font-family:'Showcard Gothic';-inkscape-font-specification:'Showcard Gothic, Normal';font-variant-ligatures:normal;font-variant-caps:normal;font-variant-numeric:normal;font-variant-east-asian:normal;writing-mode:lr-tb;direction:ltr;white-space:pre;shape-inside:url(#rect2335);display:inline;fill:#f9d93a;fill-opacity:1;stroke:#000000;stroke-width:3.91937;stroke-linecap:round;stroke-opacity:0.497573;paint-order:markers fill stroke"
       transform="matrix(0.26458333,0,0,0.26458333,87.180208,-80.16875)"><tspan
         x="-109.5"
         y="893.37499"
         id="tspan36">Hi, I'm Hunter</tspan></text></g></svg>
